<?xml version="1.0" encoding="utf-8"?>
<!-- Generator: Adobe Illustrator 23.0.3, SVG Export Plug-In . SVG Version: 6.00 Build 0)  -->
<svg version="1.1" id="Layer_1" xmlns="http://www.w3.org/2000/svg" xmlns:xlink="http://www.w3.org/1999/xlink" x="0px" y="0px"
	 viewBox="0 0 30 30" style="enable-background:new 0 0 30 30;" xml:space="preserve">
<style type="text/css">
	.st0{fill:#E15060;}
</style>
<path class="st0" d="M27.6,6.9c-2.2-3.4-5.9-5.9-9.9-6.6C14.1-0.4,10.1,0.4,7,2.4C5.1,3.6,3.5,5.2,2.4,7C0.9,9.3,0.1,12.1,0,14.9
	v0.3c0,2.1,0.5,4.1,1.3,6c1.4,3.1,3.9,5.7,6.9,7.2c2.7,1.4,5.7,1.9,8.7,1.5c2.4-0.3,4.7-1.2,6.7-2.6c1.8-1.3,3.4-3,4.5-4.9
	c1.2-2.2,1.9-4.7,1.9-7.2v-0.3C30,12.1,29.2,9.3,27.6,6.9z M22.1,19.8c-0.8,0.8-1.5,1.5-2.3,2.3c-1.6-1.6-3.2-3.2-4.8-4.8
	c-1.6,1.6-3.2,3.2-4.8,4.8c-0.8-0.8-1.5-1.5-2.3-2.3c1.6-1.6,3.2-3.2,4.8-4.8c-1.6-1.6-3.2-3.2-4.8-4.8C8.7,9.5,9.5,8.7,10.3,8
	c1.6,1.6,3.2,3.2,4.8,4.8c1.6-1.6,3.2-3.2,4.8-4.8c0.8,0.8,1.5,1.5,2.3,2.3c-1.6,1.6-3.2,3.2-4.8,4.8C18.9,16.6,20.5,18.2,22.1,19.8
	z"/>
</svg>
