<?xml version="1.0" encoding="utf-8"?>
<!-- Generator: Adobe Illustrator 23.0.3, SVG Export Plug-In . SVG Version: 6.00 Build 0)  -->
<svg version="1.1" id="Layer_1" xmlns="http://www.w3.org/2000/svg" xmlns:xlink="http://www.w3.org/1999/xlink" x="0px" y="0px"
	 viewBox="0 0 30 30" style="enable-background:new 0 0 30 30;" xml:space="preserve">
<style type="text/css">
	.st0{fill:#4CAE4E;}
</style>
<path class="st0" d="M28.6,8.7c-1.5-3.3-4.2-5.9-7.5-7.4c-1.8-0.8-3.7-1.2-5.7-1.3h-0.7c-2.8,0.1-5.5,0.9-7.8,2.4
	c-2.9,1.9-5.1,4.8-6.1,8c-0.4,1.4-0.7,2.8-0.7,4.2v0.7c0.1,2.7,0.9,5.3,2.3,7.6c1.3,2.1,3.2,3.8,5.3,5c2.1,1.2,4.5,1.9,7,1.9h0.7
	c3-0.1,5.9-1,8.3-2.8c2-1.4,3.6-3.3,4.7-5.5c1-2,1.5-4.2,1.6-6.4v-0.6C30,12.7,29.5,10.6,28.6,8.7z M23.6,11.1
	c-3.6,3.6-7.1,7.1-10.7,10.7c-0.2,0.2-0.6,0.3-0.8,0c-1.9-1.9-3.8-3.8-5.7-5.7c-0.2-0.2-0.2-0.6,0-0.8c0.7-0.7,1.5-1.5,2.2-2.2
	c0.2-0.2,0.6-0.2,0.8,0c1,1,2.1,2.1,3.1,3.1c2.6-2.6,5.3-5.3,7.9-7.9C20.6,8.2,20.7,8,21,8c0.2,0,0.4,0,0.5,0.2
	c0.7,0.7,1.4,1.4,2.2,2.2C23.9,10.6,23.9,10.9,23.6,11.1z"/>
</svg>
